STARTFONT 2.1
FONT -B&H-Lucida Bright-Medium-R-Normal--8-80-72-72-P-46-ISO8859-1
SIZE 8 72 72
FONTBOUNDINGBOX 12 10 -3 -2

STARTPROPERTIES 22
FONTNAME_REGISTRY "-"
FOUNDRY "B&H"
FAMILY_NAME "Lucida Bright"
WEIGHT_NAME "Medium"
SLANT "R"
SETWIDTH_NAME "Normal"
ADD_STYLE_NAME ""
PIXEL_SIZE 8
POINT_SIZE 80
RESOLUTION_X 72
RESOLUTION_Y 72
SPACING "P"
CHARSET_REGISTRY "ISO8859"
CHARSET_ENCODING "1"
FULL_NAME "LucidaBright"
AVERAGE_WIDTH 46
WEIGHT 10
X_HEIGHT 4
QUAD_WIDTH 5
DEFAULT_CHAR 32
FONT_DESCENT 2
FONT_ASCENT 8
ENDPROPERTIES

CHARS 190

STARTCHAR space
ENCODING 32
SWIDTH 333 0
DWIDTH 3 0
BBX 1 1 0 0
BITMAP
00
ENDCHAR

STARTCHAR exclam
ENCODING 33
SWIDTH 265 0
DWIDTH 2 0
BBX 1 6 1 0
BITMAP
80
80
80
80
00
80
ENDCHAR

STARTCHAR quotedbl
ENCODING 34
SWIDTH 386 0
DWIDTH 3 0
BBX 2 2 1 4
BITMAP
C0
C0
ENDCHAR

STARTCHAR numbersign
ENCODING 35
SWIDTH 608 0
DWIDTH 5 0
BBX 5 6 0 0
BITMAP
50
50
F8
50
F8
50
ENDCHAR

STARTCHAR dollar
ENCODING 36
SWIDTH 608 0
DWIDTH 5 0
BBX 4 6 0 0
BITMAP
20
F0
A0
70
B0
F0
ENDCHAR

STARTCHAR percent
ENCODING 37
SWIDTH 675 0
DWIDTH 5 0
BBX 6 6 0 0
BITMAP
E4
A8
BC
F4
54
9C
ENDCHAR

STARTCHAR ampersand
ENCODING 38
SWIDTH 690 0
DWIDTH 6 0
BBX 7 6 0 0
BITMAP
70
50
AE
9C
90
7E
ENDCHAR

STARTCHAR quoteright
ENCODING 39
SWIDTH 265 0
DWIDTH 2 0
BBX 1 3 1 3
BITMAP
80
80
80
ENDCHAR

STARTCHAR parenleft
ENCODING 40
SWIDTH 316 0
DWIDTH 3 0
BBX 2 8 0 -2
BITMAP
40
80
80
80
80
80
80
40
ENDCHAR

STARTCHAR parenright
ENCODING 41
SWIDTH 316 0
DWIDTH 3 0
BBX 2 8 4 -2
BITMAP
80
40
40
40
40
40
40
80
ENDCHAR

STARTCHAR asterisk
ENCODING 42
SWIDTH 470 0
DWIDTH 4 0
BBX 3 4 0 2
BITMAP
40
A0
C0
20
ENDCHAR

STARTCHAR plus
ENCODING 43
SWIDTH 608 0
DWIDTH 5 0
BBX 5 5 0 0
BITMAP
20
20
F8
20
20
ENDCHAR

STARTCHAR comma
ENCODING 44
SWIDTH 265 0
DWIDTH 2 0
BBX 1 3 1 -2
BITMAP
80
80
80
ENDCHAR

STARTCHAR minus
ENCODING 45
SWIDTH 608 0
DWIDTH 5 0
BBX 5 1 0 2
BITMAP
F8
ENDCHAR

STARTCHAR period
ENCODING 46
SWIDTH 265 0
DWIDTH 2 0
BBX 1 1 1 0
BITMAP
80
ENDCHAR

STARTCHAR slash
ENCODING 47
SWIDTH 512 0
DWIDTH 4 0
BBX 4 8 0 -2
BITMAP
10
10
20
20
40
40
80
80
ENDCHAR

STARTCHAR zero
ENCODING 48
SWIDTH 608 0
DWIDTH 5 0
BBX 4 6 0 0
BITMAP
60
90
90
90
90
60
ENDCHAR

STARTCHAR one
ENCODING 49
SWIDTH 608 0
DWIDTH 5 0
BBX 3 6 1 0
BITMAP
C0
40
40
40
40
E0
ENDCHAR

STARTCHAR two
ENCODING 50
SWIDTH 608 0
DWIDTH 5 0
BBX 4 6 0 0
BITMAP
F0
90
10
60
C0
F0
ENDCHAR

STARTCHAR three
ENCODING 51
SWIDTH 608 0
DWIDTH 5 0
BBX 4 6 0 0
BITMAP
F0
10
60
10
10
E0
ENDCHAR

STARTCHAR four
ENCODING 52
SWIDTH 608 0
DWIDTH 5 0
BBX 5 6 0 0
BITMAP
10
30
70
50
F8
38
ENDCHAR

STARTCHAR five
ENCODING 53
SWIDTH 608 0
DWIDTH 5 0
BBX 4 6 0 0
BITMAP
F0
80
E0
10
90
E0
ENDCHAR

STARTCHAR six
ENCODING 54
SWIDTH 608 0
DWIDTH 5 0
BBX 4 6 0 0
BITMAP
70
80
F0
90
90
60
ENDCHAR

STARTCHAR seven
ENCODING 55
SWIDTH 608 0
DWIDTH 5 0
BBX 4 6 1 0
BITMAP
F0
10
20
60
40
40
ENDCHAR

STARTCHAR eight
ENCODING 56
SWIDTH 608 0
DWIDTH 5 0
BBX 4 6 0 0
BITMAP
F0
90
90
F0
90
E0
ENDCHAR

STARTCHAR nine
ENCODING 57
SWIDTH 608 0
DWIDTH 5 0
BBX 4 6 0 0
BITMAP
60
90
90
F0
10
E0
ENDCHAR

STARTCHAR colon
ENCODING 58
SWIDTH 265 0
DWIDTH 2 0
BBX 1 4 1 0
BITMAP
80
00
00
80
ENDCHAR

STARTCHAR semicolon
ENCODING 59
SWIDTH 265 0
DWIDTH 2 0
BBX 1 6 1 -2
BITMAP
80
00
00
80
80
80
ENDCHAR

STARTCHAR less
ENCODING 60
SWIDTH 608 0
DWIDTH 5 0
BBX 6 4 1 0
BITMAP
0C
F0
70
0C
ENDCHAR

STARTCHAR equal
ENCODING 61
SWIDTH 608 0
DWIDTH 5 0
BBX 5 2 0 1
BITMAP
F8
F8
ENDCHAR

STARTCHAR greater
ENCODING 62
SWIDTH 608 0
DWIDTH 5 0
BBX 6 4 0 0
BITMAP
C0
38
3C
C0
ENDCHAR

STARTCHAR question
ENCODING 63
SWIDTH 480 0
DWIDTH 4 0
BBX 4 6 0 0
BITMAP
F0
90
30
40
00
40
ENDCHAR

STARTCHAR at
ENCODING 64
SWIDTH 873 0
DWIDTH 7 0
BBX 7 6 0 0
BITMAP
3C
46
9A
AA
FC
78
ENDCHAR

STARTCHAR A
ENCODING 65
SWIDTH 744 0
DWIDTH 6 0
BBX 6 6 0 0
BITMAP
10
30
50
48
78
CC
ENDCHAR

STARTCHAR B
ENCODING 66
SWIDTH 609 0
DWIDTH 5 0
BBX 5 6 0 0
BITMAP
F8
48
70
48
48
F0
ENDCHAR

STARTCHAR C
ENCODING 67
SWIDTH 695 0
DWIDTH 6 0
BBX 5 6 0 0
BITMAP
78
C8
80
80
C0
78
ENDCHAR

STARTCHAR D
ENCODING 68
SWIDTH 768 0
DWIDTH 6 0
BBX 6 6 0 0
BITMAP
F8
4C
44
44
4C
F8
ENDCHAR

STARTCHAR E
ENCODING 69
SWIDTH 566 0
DWIDTH 5 0
BBX 4 6 0 0
BITMAP
F0
40
70
40
40
F0
ENDCHAR

STARTCHAR F
ENCODING 70
SWIDTH 548 0
DWIDTH 4 0
BBX 4 6 0 0
BITMAP
F0
40
70
40
40
E0
ENDCHAR

STARTCHAR G
ENCODING 71
SWIDTH 732 0
DWIDTH 6 0
BBX 6 6 0 0
BITMAP
78
C8
80
9C
C8
78
ENDCHAR

STARTCHAR H
ENCODING 72
SWIDTH 771 0
DWIDTH 6 0
BBX 7 6 0 0
BITMAP
EE
44
7C
44
44
EE
ENDCHAR

STARTCHAR I
ENCODING 73
SWIDTH 325 0
DWIDTH 3 0
BBX 3 6 0 0
BITMAP
E0
40
40
40
40
E0
ENDCHAR

STARTCHAR J
ENCODING 74
SWIDTH 422 0
DWIDTH 3 0
BBX 4 8 0 -2
BITMAP
70
20
20
20
20
20
A0
C0
ENDCHAR

STARTCHAR K
ENCODING 75
SWIDTH 708 0
DWIDTH 6 0
BBX 6 6 0 0
BITMAP
EC
44
48
50
78
EC
ENDCHAR

STARTCHAR L
ENCODING 76
SWIDTH 557 0
DWIDTH 4 0
BBX 5 6 0 0
BITMAP
E0
40
40
40
48
F8
ENDCHAR

STARTCHAR M
ENCODING 77
SWIDTH 860 0
DWIDTH 7 0
BBX 8 6 0 0
BITMAP
C3
66
66
5A
5A
F7
ENDCHAR

STARTCHAR N
ENCODING 78
SWIDTH 751 0
DWIDTH 6 0
BBX 7 6 0 0
BITMAP
CE
64
74
5C
4C
E4
ENDCHAR

STARTCHAR O
ENCODING 79
SWIDTH 777 0
DWIDTH 6 0
BBX 6 6 0 0
BITMAP
78
CC
84
84
CC
78
ENDCHAR

STARTCHAR P
ENCODING 80
SWIDTH 573 0
DWIDTH 5 0
BBX 5 6 0 0
BITMAP
F0
48
48
70
40
E0
ENDCHAR

STARTCHAR Q
ENCODING 81
SWIDTH 778 0
DWIDTH 6 0
BBX 7 8 0 -2
BITMAP
78
CC
84
84
CC
78
08
06
ENDCHAR

STARTCHAR R
ENCODING 82
SWIDTH 679 0
DWIDTH 5 0
BBX 6 6 0 0
BITMAP
F8
48
48
70
48
EC
ENDCHAR

STARTCHAR S
ENCODING 83
SWIDTH 542 0
DWIDTH 4 0
BBX 4 6 0 0
BITMAP
F0
90
C0
30
90
F0
ENDCHAR

STARTCHAR T
ENCODING 84
SWIDTH 663 0
DWIDTH 5 0
BBX 5 6 0 0
BITMAP
F8
20
20
20
20
70
ENDCHAR

STARTCHAR U
ENCODING 85
SWIDTH 719 0
DWIDTH 6 0
BBX 7 6 0 0
BITMAP
EE
44
44
44
44
38
ENDCHAR

STARTCHAR V
ENCODING 86
SWIDTH 699 0
DWIDTH 6 0
BBX 6 6 0 0
BITMAP
CC
C8
48
48
30
20
ENDCHAR

STARTCHAR W
ENCODING 87
SWIDTH 925 0
DWIDTH 7 0
BBX 7 6 0 0
BITMAP
D2
92
5A
5A
6C
24
ENDCHAR

STARTCHAR X
ENCODING 88
SWIDTH 657 0
DWIDTH 5 0
BBX 5 6 0 0
BITMAP
C8
58
30
70
98
D8
ENDCHAR

STARTCHAR Y
ENCODING 89
SWIDTH 678 0
DWIDTH 5 0
BBX 5 6 0 0
BITMAP
C8
58
70
20
20
70
ENDCHAR

STARTCHAR Z
ENCODING 90
SWIDTH 633 0
DWIDTH 5 0
BBX 5 6 0 0
BITMAP
F8
90
30
40
48
F8
ENDCHAR

STARTCHAR bracketleft
ENCODING 91
SWIDTH 316 0
DWIDTH 3 0
BBX 2 8 0 -2
BITMAP
C0
80
80
80
80
80
80
C0
ENDCHAR

STARTCHAR backslash
ENCODING 92
SWIDTH 512 0
DWIDTH 4 0
BBX 4 8 0 -2
BITMAP
80
80
40
40
20
20
10
10
ENDCHAR

STARTCHAR bracketright
ENCODING 93
SWIDTH 316 0
DWIDTH 3 0
BBX 2 8 0 -2
BITMAP
C0
40
40
40
40
40
40
C0
ENDCHAR

STARTCHAR asciicircum
ENCODING 94
SWIDTH 608 0
DWIDTH 5 0
BBX 5 6 0 1
BITMAP
20
20
70
50
D8
88
ENDCHAR

STARTCHAR underscore
ENCODING 95
SWIDTH 500 0
DWIDTH 4 0
BBX 3 1 1 -1
BITMAP
E0
ENDCHAR

STARTCHAR quoteleft
ENCODING 96
SWIDTH 265 0
DWIDTH 2 0
BBX 1 2 1 4
BITMAP
80
80
ENDCHAR

STARTCHAR a
ENCODING 97
SWIDTH 543 0
DWIDTH 4 0
BBX 4 4 0 0
BITMAP
E0
E0
A0
D0
ENDCHAR

STARTCHAR b
ENCODING 98
SWIDTH 611 0
DWIDTH 5 0
BBX 5 7 0 0
BITMAP
C0
40
40
78
48
48
70
ENDCHAR

STARTCHAR c
ENCODING 99
SWIDTH 509 0
DWIDTH 4 0
BBX 4 4 0 0
BITMAP
70
90
80
70
ENDCHAR

STARTCHAR d
ENCODING 100
SWIDTH 642 0
DWIDTH 5 0
BBX 5 7 0 0
BITMAP
30
10
10
70
90
90
F8
ENDCHAR

STARTCHAR e
ENCODING 101
SWIDTH 530 0
DWIDTH 4 0
BBX 4 4 0 0
BITMAP
70
F0
80
70
ENDCHAR

STARTCHAR f
ENCODING 102
SWIDTH 404 0
DWIDTH 3 0
BBX 4 7 0 0
BITMAP
70
50
40
E0
40
40
E0
ENDCHAR

STARTCHAR g
ENCODING 103
SWIDTH 571 0
DWIDTH 5 0
BBX 4 6 0 -2
BITMAP
F0
A0
E0
80
E0
E0
ENDCHAR

STARTCHAR h
ENCODING 104
SWIDTH 633 0
DWIDTH 5 0
BBX 6 7 0 0
BITMAP
C0
40
40
78
48
48
FC
ENDCHAR

STARTCHAR i
ENCODING 105
SWIDTH 307 0
DWIDTH 2 0
BBX 3 7 0 0
BITMAP
40
00
00
C0
40
40
E0
ENDCHAR

STARTCHAR j
ENCODING 106
SWIDTH 346 0
DWIDTH 3 0
BBX 3 9 0 -2
BITMAP
20
00
00
60
20
20
20
A0
E0
ENDCHAR

STARTCHAR k
ENCODING 107
SWIDTH 599 0
DWIDTH 5 0
BBX 5 7 0 0
BITMAP
C0
40
40
58
50
70
F8
ENDCHAR

STARTCHAR l
ENCODING 108
SWIDTH 313 0
DWIDTH 3 0
BBX 3 7 0 0
BITMAP
C0
40
40
40
40
40
E0
ENDCHAR

STARTCHAR m
ENCODING 109
SWIDTH 946 0
DWIDTH 8 0
BBX 9 4 0 0
BITMAP
FF00
4900
4900
FF80
ENDCHAR

STARTCHAR n
ENCODING 110
SWIDTH 633 0
DWIDTH 5 0
BBX 6 4 0 0
BITMAP
F8
48
48
FC
ENDCHAR

STARTCHAR o
ENCODING 111
SWIDTH 602 0
DWIDTH 5 0
BBX 4 4 0 0
BITMAP
60
90
90
60
ENDCHAR

STARTCHAR p
ENCODING 112
SWIDTH 642 0
DWIDTH 5 0
BBX 5 6 0 -2
BITMAP
F8
48
48
70
40
E0
ENDCHAR

STARTCHAR q
ENCODING 113
SWIDTH 617 0
DWIDTH 5 0
BBX 5 6 0 -2
BITMAP
70
90
90
F0
10
38
ENDCHAR

STARTCHAR r
ENCODING 114
SWIDTH 440 0
DWIDTH 4 0
BBX 4 4 0 0
BITMAP
F0
50
40
E0
ENDCHAR

STARTCHAR s
ENCODING 115
SWIDTH 504 0
DWIDTH 4 0
BBX 3 4 1 0
BITMAP
E0
A0
E0
E0
ENDCHAR

STARTCHAR t
ENCODING 116
SWIDTH 392 0
DWIDTH 3 0
BBX 3 5 0 0
BITMAP
40
E0
40
40
60
ENDCHAR

STARTCHAR u
ENCODING 117
SWIDTH 633 0
DWIDTH 5 0
BBX 6 4 0 0
BITMAP
D8
48
48
7C
ENDCHAR

STARTCHAR v
ENCODING 118
SWIDTH 545 0
DWIDTH 4 0
BBX 4 4 0 0
BITMAP
D0
D0
50
20
ENDCHAR

STARTCHAR w
ENCODING 119
SWIDTH 795 0
DWIDTH 6 0
BBX 6 4 0 0
BITMAP
D4
B4
7C
48
ENDCHAR

STARTCHAR x
ENCODING 120
SWIDTH 557 0
DWIDTH 4 0
BBX 4 4 0 0
BITMAP
D0
70
90
90
ENDCHAR

STARTCHAR y
ENCODING 121
SWIDTH 551 0
DWIDTH 4 0
BBX 4 6 0 -2
BITMAP
D0
90
50
70
20
40
ENDCHAR

STARTCHAR z
ENCODING 122
SWIDTH 595 0
DWIDTH 5 0
BBX 4 4 0 0
BITMAP
F0
A0
50
F0
ENDCHAR

STARTCHAR braceleft
ENCODING 123
SWIDTH 343 0
DWIDTH 3 0
BBX 3 8 0 -2
BITMAP
60
40
40
C0
40
40
40
60
ENDCHAR

STARTCHAR bar
ENCODING 124
SWIDTH 241 0
DWIDTH 2 0
BBX 1 8 0 -2
BITMAP
80
80
80
80
80
80
80
80
ENDCHAR

STARTCHAR braceright
ENCODING 125
SWIDTH 343 0
DWIDTH 3 0
BBX 3 8 6 -2
BITMAP
C0
40
40
60
40
40
40
C0
ENDCHAR

STARTCHAR asciitilde
ENCODING 126
SWIDTH 608 0
DWIDTH 5 0
BBX 5 2 0 2
BITMAP
E8
B8
ENDCHAR

STARTCHAR exclamdown
ENCODING 161
SWIDTH 265 0
DWIDTH 2 0
BBX 1 6 1 -2
BITMAP
80
00
80
80
80
80
ENDCHAR

STARTCHAR cent
ENCODING 162
SWIDTH 608 0
DWIDTH 5 0
BBX 4 6 0 0
BITMAP
20
70
B0
A0
70
20
ENDCHAR

STARTCHAR sterling
ENCODING 163
SWIDTH 608 0
DWIDTH 5 0
BBX 4 6 1 0
BITMAP
70
50
E0
40
40
F0
ENDCHAR

STARTCHAR currency
ENCODING 164
SWIDTH 608 0
DWIDTH 5 0
BBX 6 5 0 0
BITMAP
84
78
48
78
84
ENDCHAR

STARTCHAR yen
ENCODING 165
SWIDTH 608 0
DWIDTH 5 0
BBX 5 6 0 0
BITMAP
D8
50
F8
20
F8
20
ENDCHAR

STARTCHAR brokenbar
ENCODING 166
SWIDTH 241 0
DWIDTH 2 0
BBX 1 8 0 -2
BITMAP
80
80
80
80
00
80
80
80
ENDCHAR

STARTCHAR section
ENCODING 167
SWIDTH 608 0
DWIDTH 5 0
BBX 4 8 0 -2
BITMAP
F0
90
40
B0
D0
20
90
F0
ENDCHAR

STARTCHAR dieresis
ENCODING 168
SWIDTH 602 0
DWIDTH 5 0
BBX 3 1 1 5
BITMAP
A0
ENDCHAR

STARTCHAR copyright
ENCODING 169
SWIDTH 855 0
DWIDTH 7 0
BBX 7 6 0 0
BITMAP
38
DE
AA
A2
DE
38
ENDCHAR

STARTCHAR ordfeminine
ENCODING 170
SWIDTH 428 0
DWIDTH 3 0
BBX 3 3 0 3
BITMAP
E0
E0
E0
ENDCHAR

STARTCHAR guillemotleft
ENCODING 171
SWIDTH 530 0
DWIDTH 4 0
BBX 4 4 0 0
BITMAP
50
B0
F0
50
ENDCHAR

STARTCHAR logicalnot
ENCODING 172
SWIDTH 608 0
DWIDTH 5 0
BBX 5 2 0 1
BITMAP
F8
08
ENDCHAR

STARTCHAR hyphen
ENCODING 173
SWIDTH 325 0
DWIDTH 3 0
BBX 2 1 0 2
BITMAP
C0
ENDCHAR

STARTCHAR registered
ENCODING 174
SWIDTH 608 0
DWIDTH 5 0
BBX 4 4 0 2
BITMAP
60
F0
F0
60
ENDCHAR

STARTCHAR macron
ENCODING 175
SWIDTH 602 0
DWIDTH 5 0
BBX 2 1 1 5
BITMAP
C0
ENDCHAR

STARTCHAR degree
ENCODING 176
SWIDTH 259 0
DWIDTH 2 0
BBX 2 2 0 4
BITMAP
C0
C0
ENDCHAR

STARTCHAR plusminus
ENCODING 177
SWIDTH 608 0
DWIDTH 5 0
BBX 5 5 0 0
BITMAP
20
20
F8
20
F8
ENDCHAR

STARTCHAR twosuperior
ENCODING 178
SWIDTH 365 0
DWIDTH 3 0
BBX 3 4 -3 2
BITMAP
E0
A0
40
E0
ENDCHAR

STARTCHAR threesuperior
ENCODING 179
SWIDTH 365 0
DWIDTH 3 0
BBX 3 4 -3 2
BITMAP
E0
E0
A0
E0
ENDCHAR

STARTCHAR acute
ENCODING 180
SWIDTH 602 0
DWIDTH 5 0
BBX 2 1 2 5
BITMAP
C0
ENDCHAR

STARTCHAR mu
ENCODING 181
SWIDTH 626 0
DWIDTH 5 0
BBX 6 6 0 -2
BITMAP
D8
48
48
7C
40
40
ENDCHAR

STARTCHAR paragraph
ENCODING 182
SWIDTH 608 0
DWIDTH 5 0
BBX 4 8 0 -2
BITMAP
F0
D0
D0
50
50
50
50
50
ENDCHAR

STARTCHAR periodcentered
ENCODING 183
SWIDTH 608 0
DWIDTH 5 0
BBX 1 1 2 2
BITMAP
80
ENDCHAR

STARTCHAR cedilla
ENCODING 184
SWIDTH 602 0
DWIDTH 5 0
BBX 1 2 2 -2
BITMAP
80
80
ENDCHAR

STARTCHAR onesuperior
ENCODING 185
SWIDTH 365 0
DWIDTH 3 0
BBX 3 4 -3 2
BITMAP
C0
40
40
E0
ENDCHAR

STARTCHAR ordmasculine
ENCODING 186
SWIDTH 428 0
DWIDTH 3 0
BBX 3 4 0 2
BITMAP
E0
A0
A0
E0
ENDCHAR

STARTCHAR guillemotright
ENCODING 187
SWIDTH 530 0
DWIDTH 4 0
BBX 4 4 0 0
BITMAP
A0
F0
D0
A0
ENDCHAR

STARTCHAR onequarter
ENCODING 188
SWIDTH 766 0
DWIDTH 6 0
BBX 6 6 2 0
BITMAP
C4
48
5C
F4
3C
4C
ENDCHAR

STARTCHAR onehalf
ENCODING 189
SWIDTH 766 0
DWIDTH 6 0
BBX 6 6 2 0
BITMAP
C4
48
5C
F4
28
5C
ENDCHAR

STARTCHAR threequarters
ENCODING 190
SWIDTH 766 0
DWIDTH 6 0
BBX 6 6 2 0
BITMAP
E4
68
BC
F4
3C
4C
ENDCHAR

STARTCHAR questiondown
ENCODING 191
SWIDTH 480 0
DWIDTH 4 0
BBX 4 6 0 -2
BITMAP
20
00
20
C0
90
F0
ENDCHAR

STARTCHAR Agrave
ENCODING 192
SWIDTH 744 0
DWIDTH 6 0
BBX 6 7 0 0
BITMAP
20
10
30
50
48
78
CC
ENDCHAR

STARTCHAR Aacute
ENCODING 193
SWIDTH 744 0
DWIDTH 6 0
BBX 6 7 0 0
BITMAP
30
10
30
50
48
78
CC
ENDCHAR

STARTCHAR Acircumflex
ENCODING 194
SWIDTH 744 0
DWIDTH 6 0
BBX 6 8 0 0
BITMAP
30
48
10
30
50
48
78
CC
ENDCHAR

STARTCHAR Atilde
ENCODING 195
SWIDTH 744 0
DWIDTH 6 0
BBX 6 7 0 0
BITMAP
24
58
30
50
48
78
CC
ENDCHAR

STARTCHAR Adieresis
ENCODING 196
SWIDTH 744 0
DWIDTH 6 0
BBX 6 7 0 0
BITMAP
44
10
30
50
48
78
CC
ENDCHAR

STARTCHAR Aring
ENCODING 197
SWIDTH 744 0
DWIDTH 6 0
BBX 6 7 0 0
BITMAP
30
10
30
50
48
78
CC
ENDCHAR

STARTCHAR AE
ENCODING 198
SWIDTH 919 0
DWIDTH 7 0
BBX 8 6 0 0
BITMAP
0F
14
27
7C
44
CF
ENDCHAR

STARTCHAR Ccedilla
ENCODING 199
SWIDTH 695 0
DWIDTH 6 0
BBX 5 8 0 -2
BITMAP
78
C8
80
80
C0
78
20
20
ENDCHAR

STARTCHAR Egrave
ENCODING 200
SWIDTH 566 0
DWIDTH 5 0
BBX 4 7 0 0
BITMAP
40
F0
40
70
40
40
F0
ENDCHAR

STARTCHAR Eacute
ENCODING 201
SWIDTH 566 0
DWIDTH 5 0
BBX 4 7 0 0
BITMAP
40
F0
40
70
40
40
F0
ENDCHAR

STARTCHAR Ecircumflex
ENCODING 202
SWIDTH 566 0
DWIDTH 5 0
BBX 4 8 0 0
BITMAP
20
50
F0
40
70
40
40
F0
ENDCHAR

STARTCHAR Edieresis
ENCODING 203
SWIDTH 566 0
DWIDTH 5 0
BBX 4 7 0 0
BITMAP
50
F0
40
70
40
40
F0
ENDCHAR

STARTCHAR Igrave
ENCODING 204
SWIDTH 325 0
DWIDTH 3 0
BBX 3 7 0 0
BITMAP
80
E0
40
40
40
40
E0
ENDCHAR

STARTCHAR Iacute
ENCODING 205
SWIDTH 325 0
DWIDTH 3 0
BBX 3 7 0 0
BITMAP
40
E0
40
40
40
40
E0
ENDCHAR

STARTCHAR Icircumflex
ENCODING 206
SWIDTH 325 0
DWIDTH 3 0
BBX 3 8 0 0
BITMAP
40
A0
E0
40
40
40
40
E0
ENDCHAR

STARTCHAR Idieresis
ENCODING 207
SWIDTH 325 0
DWIDTH 3 0
BBX 3 7 0 0
BITMAP
A0
E0
40
40
40
40
E0
ENDCHAR

STARTCHAR Eth
ENCODING 208
SWIDTH 768 0
DWIDTH 6 0
BBX 6 6 0 0
BITMAP
F8
4C
44
E4
4C
F8
ENDCHAR

STARTCHAR Ntilde
ENCODING 209
SWIDTH 751 0
DWIDTH 6 0
BBX 7 7 0 0
BITMAP
38
CE
64
74
5C
4C
E4
ENDCHAR

STARTCHAR Ograve
ENCODING 210
SWIDTH 777 0
DWIDTH 6 0
BBX 6 7 0 0
BITMAP
20
78
CC
84
84
CC
78
ENDCHAR

STARTCHAR Oacute
ENCODING 211
SWIDTH 777 0
DWIDTH 6 0
BBX 6 7 0 0
BITMAP
20
78
CC
84
84
CC
78
ENDCHAR

STARTCHAR Ocircumflex
ENCODING 212
SWIDTH 777 0
DWIDTH 6 0
BBX 6 8 0 0
BITMAP
10
28
78
CC
84
84
CC
78
ENDCHAR

STARTCHAR Otilde
ENCODING 213
SWIDTH 777 0
DWIDTH 6 0
BBX 6 7 0 0
BITMAP
38
78
CC
84
84
CC
78
ENDCHAR

STARTCHAR Odieresis
ENCODING 214
SWIDTH 777 0
DWIDTH 6 0
BBX 6 7 0 0
BITMAP
28
78
CC
84
84
CC
78
ENDCHAR

STARTCHAR multiply
ENCODING 215
SWIDTH 608 0
DWIDTH 5 0
BBX 5 5 0 0
BITMAP
88
50
20
50
88
ENDCHAR

STARTCHAR Oslash
ENCODING 216
SWIDTH 777 0
DWIDTH 6 0
BBX 7 6 0 0
BITMAP
7E
CC
8C
94
EC
78
ENDCHAR

STARTCHAR Ugrave
ENCODING 217
SWIDTH 719 0
DWIDTH 6 0
BBX 7 7 0 0
BITMAP
20
FE
44
44
44
44
38
ENDCHAR

STARTCHAR Uacute
ENCODING 218
SWIDTH 719 0
DWIDTH 6 0
BBX 7 7 0 0
BITMAP
10
EE
44
44
44
44
38
ENDCHAR

STARTCHAR Ucircumflex
ENCODING 219
SWIDTH 719 0
DWIDTH 6 0
BBX 7 8 0 0
BITMAP
10
28
EE
44
44
44
44
38
ENDCHAR

STARTCHAR Udieresis
ENCODING 220
SWIDTH 719 0
DWIDTH 6 0
BBX 7 7 0 0
BITMAP
28
EE
44
44
44
44
38
ENDCHAR

STARTCHAR Yacute
ENCODING 221
SWIDTH 678 0
DWIDTH 5 0
BBX 5 7 0 0
BITMAP
30
C8
58
70
20
20
70
ENDCHAR

STARTCHAR Thorn
ENCODING 222
SWIDTH 573 0
DWIDTH 5 0
BBX 5 6 0 0
BITMAP
E0
78
48
48
70
E0
ENDCHAR

STARTCHAR germandbls
ENCODING 223
SWIDTH 614 0
DWIDTH 5 0
BBX 5 7 0 0
BITMAP
70
50
40
60
58
68
F8
ENDCHAR

STARTCHAR agrave
ENCODING 224
SWIDTH 543 0
DWIDTH 4 0
BBX 4 5 0 0
BITMAP
40
E0
E0
A0
D0
ENDCHAR

STARTCHAR aacute
ENCODING 225
SWIDTH 543 0
DWIDTH 4 0
BBX 4 5 0 0
BITMAP
40
E0
E0
A0
D0
ENDCHAR

STARTCHAR acircumflex
ENCODING 226
SWIDTH 543 0
DWIDTH 4 0
BBX 4 6 0 0
BITMAP
40
A0
E0
E0
A0
D0
ENDCHAR

STARTCHAR atilde
ENCODING 227
SWIDTH 543 0
DWIDTH 4 0
BBX 4 5 0 0
BITMAP
E0
E0
E0
A0
D0
ENDCHAR

STARTCHAR adieresis
ENCODING 228
SWIDTH 543 0
DWIDTH 4 0
BBX 4 5 0 0
BITMAP
A0
E0
E0
A0
D0
ENDCHAR

STARTCHAR aring
ENCODING 229
SWIDTH 543 0
DWIDTH 4 0
BBX 4 5 0 0
BITMAP
60
A0
E0
A0
D0
ENDCHAR

STARTCHAR ae
ENCODING 230
SWIDTH 819 0
DWIDTH 7 0
BBX 6 4 0 0
BITMAP
FC
EC
B0
DC
ENDCHAR

STARTCHAR ccedilla
ENCODING 231
SWIDTH 509 0
DWIDTH 4 0
BBX 4 6 0 -2
BITMAP
70
90
80
70
20
20
ENDCHAR

STARTCHAR egrave
ENCODING 232
SWIDTH 530 0
DWIDTH 4 0
BBX 4 5 0 0
BITMAP
40
70
F0
80
70
ENDCHAR

STARTCHAR eacute
ENCODING 233
SWIDTH 530 0
DWIDTH 4 0
BBX 4 5 0 0
BITMAP
40
70
F0
80
70
ENDCHAR

STARTCHAR ecircumflex
ENCODING 234
SWIDTH 530 0
DWIDTH 4 0
BBX 4 6 0 0
BITMAP
20
50
70
F0
80
70
ENDCHAR

STARTCHAR edieresis
ENCODING 235
SWIDTH 530 0
DWIDTH 4 0
BBX 4 5 0 0
BITMAP
50
70
F0
80
70
ENDCHAR

STARTCHAR igrave
ENCODING 236
SWIDTH 307 0
DWIDTH 2 0
BBX 3 5 0 0
BITMAP
80
C0
40
40
E0
ENDCHAR

STARTCHAR iacute
ENCODING 237
SWIDTH 307 0
DWIDTH 2 0
BBX 3 5 0 0
BITMAP
60
C0
40
40
E0
ENDCHAR

STARTCHAR icircumflex
ENCODING 238
SWIDTH 307 0
DWIDTH 2 0
BBX 3 6 0 0
BITMAP
40
A0
C0
40
40
E0
ENDCHAR

STARTCHAR idieresis
ENCODING 239
SWIDTH 307 0
DWIDTH 2 0
BBX 3 5 0 0
BITMAP
A0
C0
40
40
E0
ENDCHAR

STARTCHAR eth
ENCODING 240
SWIDTH 596 0
DWIDTH 5 0
BBX 4 6 0 0
BITMAP
E0
60
F0
90
90
60
ENDCHAR

STARTCHAR ntilde
ENCODING 241
SWIDTH 633 0
DWIDTH 5 0
BBX 6 5 0 0
BITMAP
70
F8
48
48
FC
ENDCHAR

STARTCHAR ograve
ENCODING 242
SWIDTH 602 0
DWIDTH 5 0
BBX 4 5 0 0
BITMAP
40
60
90
90
60
ENDCHAR

STARTCHAR oacute
ENCODING 243
SWIDTH 602 0
DWIDTH 5 0
BBX 4 5 0 0
BITMAP
60
60
90
90
60
ENDCHAR

STARTCHAR ocircumflex
ENCODING 244
SWIDTH 602 0
DWIDTH 5 0
BBX 4 6 0 0
BITMAP
20
50
60
90
90
60
ENDCHAR

STARTCHAR otilde
ENCODING 245
SWIDTH 602 0
DWIDTH 5 0
BBX 4 5 0 0
BITMAP
70
60
90
90
60
ENDCHAR

STARTCHAR odieresis
ENCODING 246
SWIDTH 602 0
DWIDTH 5 0
BBX 4 5 0 0
BITMAP
50
60
90
90
60
ENDCHAR

STARTCHAR divide
ENCODING 247
SWIDTH 608 0
DWIDTH 5 0
BBX 5 3 0 1
BITMAP
20
F8
20
ENDCHAR

STARTCHAR oslash
ENCODING 248
SWIDTH 602 0
DWIDTH 5 0
BBX 4 4 0 0
BITMAP
70
B0
D0
E0
ENDCHAR

STARTCHAR ugrave
ENCODING 249
SWIDTH 633 0
DWIDTH 5 0
BBX 6 5 0 0
BITMAP
20
D8
48
48
7C
ENDCHAR

STARTCHAR uacute
ENCODING 250
SWIDTH 633 0
DWIDTH 5 0
BBX 6 5 0 0
BITMAP
30
D8
48
48
7C
ENDCHAR

STARTCHAR ucircumflex
ENCODING 251
SWIDTH 633 0
DWIDTH 5 0
BBX 6 6 0 0
BITMAP
10
28
D8
48
48
7C
ENDCHAR

STARTCHAR udieresis
ENCODING 252
SWIDTH 633 0
DWIDTH 5 0
BBX 6 5 0 0
BITMAP
28
D8
48
48
7C
ENDCHAR

STARTCHAR yacute
ENCODING 253
SWIDTH 551 0
DWIDTH 4 0
BBX 4 7 0 -2
BITMAP
20
D0
90
50
70
20
40
ENDCHAR

STARTCHAR thorn
ENCODING 254
SWIDTH 642 0
DWIDTH 5 0
BBX 5 7 0 -2
BITMAP
C0
78
48
48
70
40
E0
ENDCHAR

STARTCHAR ydieresis
ENCODING 255
SWIDTH 551 0
DWIDTH 4 0
BBX 4 7 0 -2
BITMAP
50
D0
90
50
70
20
40
ENDCHAR
ENDFONT
